<?xml version="1.0" encoding="utf-8"?>
<!-- Generator: Adobe Illustrator 16.0.0, SVG Export Plug-In . SVG Version: 6.00 Build 0)  -->
<!DOCTYPE svg PUBLIC "-//W3C//DTD SVG 1.1//EN" "http://www.w3.org/Graphics/SVG/1.1/DTD/svg11.dtd">
<svg version="1.1" id="Layer_1" xmlns="http://www.w3.org/2000/svg" xmlns:xlink="http://www.w3.org/1999/xlink" x="0px" y="0px"
	 width="708.66px" height="396.85px" viewBox="0 0 708.66 396.85" enable-background="new 0 0 708.66 396.85" xml:space="preserve">
<g>
	<g>
		<ellipse fill="#F6F6F6" cx="349.839" cy="355.039" rx="180.439" ry="17.839"/>
	</g>
	<g>
		<g>
			<g>
				<g>
					<path fill="#696E78" d="M450.989,328.541c-2.13,2.128-4.442,4.16-6.95,6.081c-12.542,9.63-29.878,16.532-52.908,18.837
						c-117.774,11.786-156.687-43.461-166.201-128.464c-4.236-37.882,5.682-62.876,17.983-78.951
						c1.287-1.678,2.598-3.261,3.921-4.749c0.748-0.84,1.515-1.662,2.299-2.463c15.885-16.223,38.81-23.857,61.341-20.15
						c17.708,2.915,33.796,12.373,46.851,31.278c20.877,30.229,1.126,56.22,60.794,57.958
						C463.793,209.25,492.732,286.898,450.989,328.541z"/>
				</g>
			</g>
			<g>
				<g>
					<path fill="#4F5B5D" d="M270.685,144.99c0,0-13.927,29.797,2.153,84.497c16.081,54.699,37.379,50.389,51.138,50.389
						c24.037,0,72.717-22.643,82.229-40.479c9.514-17.837-8.438-18.902-42.053-21.541
						C330.537,215.218,305.454,133.188,270.685,144.99z"/>
				</g>
			</g>
			<g>
				<g>
					<path fill="#4F5B5D" d="M300.886,302.832c-0.265,0-0.529-0.104-0.726-0.312c-0.381-0.4-0.366-1.035,0.036-1.416
						c12.021-11.43,23.502-18.162,31.018-21.798c8.175-3.954,13.44-5.182,13.661-5.231c0.54-0.122,1.077,0.214,1.199,0.754
						c0.124,0.539-0.214,1.076-0.753,1.199c-0.241,0.056-21.167,5.061-43.744,26.528
						C301.382,302.74,301.134,302.832,300.886,302.832z"/>
				</g>
			</g>
			<g>
				<g>
					<path fill="#4F5B5D" d="M304.857,289.443c-0.322,0-0.639-0.155-0.832-0.443c-0.309-0.458-0.187-1.081,0.272-1.39
						c0.468-0.315,11.657-7.735,28.978-9.626c0.548-0.06,1.044,0.337,1.104,0.887c0.06,0.55-0.337,1.045-0.887,1.104
						c-16.834,1.838-27.966,9.223-28.077,9.297C305.244,289.388,305.049,289.443,304.857,289.443z"/>
				</g>
			</g>
			<g>
				<g>
					<path fill="#4F5B5D" d="M268.541,206.685c-0.498,0-0.929-0.37-0.993-0.877c-1.455-11.587-6.439-20.445-10.364-25.836
						c-4.269-5.861-8.247-9.013-8.287-9.044c-0.435-0.342-0.512-0.971-0.17-1.406s0.97-0.512,1.406-0.171
						c0.169,0.133,4.199,3.316,8.627,9.382c4.082,5.591,9.265,14.783,10.776,26.825c0.069,0.549-0.32,1.05-0.869,1.119
						C268.624,206.682,268.582,206.685,268.541,206.685z"/>
				</g>
			</g>
			<g>
				<g>
					<g>
						<path fill="#4F5B5D" d="M450.989,328.541c-2.13,2.128-4.442,4.16-6.95,6.081c-14.495,8.705-32.177,14.429-51.655,16.667
							c-6.044,0.695-12.141,1.039-18.242,1.039c-16.823,0-33.678-2.622-49.571-7.77c-41.339-13.391-71.166-42.036-83.988-80.664
							c-7.029-21.178-10.48-41.771-10.259-61.214c0.175-15.573,2.696-30.443,7.489-44.198c1.599-4.588,3.338-8.734,5.101-12.439
							c1.287-1.678,2.598-3.261,3.921-4.749c0.748-0.84,1.515-1.662,2.299-2.463c-3.14,5.38-6.499,12.214-9.366,20.462
							c-7.389,21.273-12.898,56.573,2.822,103.935c12.603,37.973,41.949,66.14,82.633,79.318
							c43.22,13.998,93.211,8.325,124.394-14.122C450.048,328.116,450.63,328.177,450.989,328.541z"/>
					</g>
				</g>
			</g>
		</g>
		<g>
			<g>
				<g>
					<g>
						<path fill="#12183A" d="M278.282,110.575c0,0-16.261-16.619,7.424-28.33c23.686-11.711,51.587,6.18,56.163,19.228
							C346.445,114.52,278.282,110.575,278.282,110.575z"/>
					</g>
				</g>
				<g>
					<g>
						<path fill="#0B0C13" d="M306.571,99.176c-0.144,0-0.289-0.049-0.407-0.15c-6.464-5.531-17.292-5.023-17.4-5.019
							c-0.011,0.001-0.022,0.001-0.034,0.001c-0.331,0-0.607-0.259-0.625-0.593c-0.018-0.345,0.247-0.64,0.592-0.658
							c0.465-0.026,11.44-0.535,18.28,5.318c0.263,0.225,0.294,0.62,0.069,0.882C306.923,99.102,306.748,99.176,306.571,99.176z"/>
					</g>
				</g>
				<g>
					<g>
						<path fill="#0B0C13" d="M290.696,99.962c-0.224,0-0.44-0.121-0.553-0.333c-0.162-0.305-0.046-0.684,0.259-0.847
							c0.316-0.168,7.806-4.111,13.122-2.873c0.337,0.078,0.546,0.415,0.467,0.751c-0.078,0.337-0.413,0.547-0.751,0.468
							c-4.861-1.131-12.176,2.719-12.249,2.759C290.896,99.938,290.795,99.962,290.696,99.962z"/>
					</g>
				</g>
			</g>
			<g>
				<g>
					<g>
						<g>
							<g>
								<path fill="#F79A86" d="M454.551,318.559l8.34,15.371c0,0,10.254,2.412,22.447,3.35c18.532,1.424,24.021-1.499,25.332,2.64
									c1.022,3.226-13.074,10.521-19.591,11.672c-6.516,1.152-20.763,6.995-30.006,8.02c-9.243,1.025-13.322-10.646-15.416-14.801
									s-8.681-18.228-8.681-18.228L454.551,318.559z"/>
							</g>
						</g>
					</g>
				</g>
				<g>
					<g>
						<g>
							<g>
								<path fill="#0B0C13" d="M503.401,343.973c0.039,1.161-0.171,2.262-0.783,3.153c-0.097,0.141-0.201,0.274-0.319,0.403
									c-3.281,3.624-16.416,5.376-16.416,5.376c1.046-1.006,1.549-2.426,1.703-4.017c0.411-4.178-1.579-9.537-2.444-11.626
									c-0.235-0.566-0.388-0.892-0.388-0.892c2.273-0.531,4.432-0.828,6.384-0.973c1.919-0.145,3.639-0.144,5.063-0.082
									c2.678,0.115,4.318,0.445,4.318,0.445s0.461,0.74,1.014,1.877C502.332,339.276,503.325,341.739,503.401,343.973z"/>
							</g>
						</g>
					</g>
				</g>
				<g>
					<g>
						<g>
							<g>
								<path fill="#12183A" d="M497.817,341.434l-4.548,0.471c0,0-0.598-2.225-1.282-4.264c-0.279-0.834-0.576-1.636-0.85-2.242
									c1.919-0.145,3.639-0.144,5.063-0.082c0.27,0.602,0.592,1.45,0.875,2.393C497.438,338.899,497.746,340.243,497.817,341.434z
									"/>
							</g>
						</g>
					</g>
				</g>
				<g>
					<g>
						<g>
							<path fill="#0B0C13" d="M509.069,342.187c0,0-42.444,13.438-48.146,14.435s-8.808-0.121-8.808-0.121s0.178,2.335,0.657,4.523
								c0.563,2.575,3.24,4.096,5.759,3.316c11.354-3.515,48.882-15.231,51.44-17.309
								C512.99,344.582,512.335,341.975,509.069,342.187z"/>
						</g>
					</g>
				</g>
			</g>
			<g>
				<g>
					<g>
						<g>
							<g>
								<g>
									<path fill="#F79A86" d="M415.447,315.028l-0.548,13.809c0,0,7.578,7.317,17.578,14.357
										c15.197,10.7,21.408,10.995,20.419,15.223c-0.771,3.295-16.615,2.355-22.804,0.013c-6.188-2.342-21.42-4.606-29.888-8.452
										c-8.467-3.846-6.004-15.961-5.679-20.603c0.325-4.643,1.017-15.096,1.017-15.096L415.447,315.028z"/>
								</g>
							</g>
						</g>
					</g>
					<g>
						<g>
							<g>
								<g>
									<path fill="#0B0C13" d="M444.578,358.184c-0.561,1.018-1.304,1.856-2.286,2.31c-0.154,0.071-0.313,0.133-0.48,0.184
										c-4.673,1.436-16.856-3.775-16.856-3.775c1.413-0.329,2.571-1.292,3.518-2.58c2.489-3.38,3.52-9.003,3.844-11.241
										c0.088-0.607,0.123-0.965,0.123-0.965c2.226,0.706,4.232,1.556,5.983,2.429c1.724,0.857,3.201,1.737,4.394,2.519
										c2.242,1.469,3.483,2.592,3.483,2.592s0.018,0.871-0.089,2.131C446.061,353.602,445.654,356.226,444.578,358.184z"/>
								</g>
							</g>
						</g>
					</g>
					<g>
						<g>
							<g>
								<g>
									<path fill="#12183A" d="M441.078,353.146l-4.149-1.921c0,0,0.623-2.218,1.078-4.32c0.187-0.859,0.342-1.7,0.416-2.361
										c1.724,0.857,3.201,1.737,4.394,2.519c-0.076,0.655-0.233,1.549-0.472,2.504
										C442.048,350.775,441.625,352.087,441.078,353.146z"/>
								</g>
							</g>
						</g>
					</g>
					<g>
						<g>
							<g>
								<path fill="#0B0C13" d="M450.362,359.547c0,0-43.348-10.156-48.757-12.215s-7.507-4.607-7.507-4.607
									s-1.041,2.098-1.748,4.223c-0.833,2.501,0.689,5.177,3.253,5.795c11.554,2.785,49.797,11.907,53.058,11.431
									C452.506,363.61,453.276,361.035,450.362,359.547z"/>
							</g>
						</g>
					</g>
				</g>
				<g>
					<g>
						<g>
							<path fill="#313265" d="M430.191,205.322c-11-8.463-50.512-4.981-81.462-0.604c-0.88,14.023,3.439,2.377,0.827,16.173
								c38.642,1.983,49.495,5.03,49.495,5.03s-5.778,31.453-5.501,44.603c0.276,13.149-4.376,51.201-4.376,51.201l27.862,5.252
								C417.037,326.977,445.941,217.438,430.191,205.322z"/>
						</g>
					</g>
				</g>
				<g>
					<g>
						<g>
							<path fill="#FFFFFF" d="M418.453,320.851c-0.12,0.04-0.252,0.05-0.385,0.022l-27.515-5.621
								c-0.406-0.083-0.668-0.479-0.585-0.886s0.479-0.668,0.886-0.585l27.515,5.621c0.406,0.083,0.668,0.479,0.585,0.886
								C418.898,320.562,418.7,320.77,418.453,320.851z"/>
						</g>
					</g>
				</g>
				<g>
					<g>
						<g>
							<path fill="#FFFFFF" d="M395.856,315.504c-0.122,0.04-0.257,0.05-0.393,0.021c-0.405-0.088-0.663-0.487-0.575-0.893
								c0.029-0.137,2.973-14.042,3.14-36.507c0.168-22.63,7.105-56.336,7.176-56.674c0.084-0.406,0.48-0.667,0.887-0.583
								c0.406,0.085,0.667,0.481,0.583,0.888c-0.07,0.336-6.978,33.899-7.145,56.381c-0.168,22.633-3.144,36.673-3.174,36.813
								C396.298,315.219,396.101,315.423,395.856,315.504z"/>
						</g>
					</g>
				</g>
			</g>
			<g>
				<g>
					<g>
						<g>
							<g>
								<g>
									<g>
										<g>
											<g>
												<g>
													<g>
														<g>
															<g>
																<g>
																	<g>
																		<g>
																			<path fill="#F79A86" d="M415.421,123.544c-1.017-1.37-0.284-4.239-0.536-6.476
																				c-0.333-2.95,0.08-7.478,0.983-9.971c1.355-3.743,5.952-14.545,9.007-15.81c3.055-1.265-0.188,8.36-0.815,10.347
																				c-0.626,1.987-0.314,3.565-0.314,3.565s9.15-21.504,11.686-22.237c2.535-0.732-1.446,12.027-2.451,15.174
																				c0,0,7.795-15.821,9.55-15.778c3.522,0.086-4.625,17.903-4.625,17.903s7.235-12.975,9.333-11.725
																				c2.222,1.324-5.564,15.203-5.564,15.203s5.952-7.771,8.254-7.518c2.303,0.253-8.938,17.531-10.985,19.979
																				c-2.048,2.449-7.022,9.501-10.2,12.204C426.582,130.242,418.643,127.881,415.421,123.544z"/>
																		</g>
																	</g>
																</g>
															</g>
														</g>
													</g>
												</g>
											</g>
										</g>
									</g>
								</g>
							</g>
						</g>
					</g>
					<g>
						<g>
							<g>
								<g>
									<g>
										<g>
											<g>
												<g>
													<g>
														<path fill="#F3796B" d="M440.538,109.356c0.24-0.22,0.285-0.588,0.092-0.861c-4.512-6.387-12.21-7.189-12.535-7.22
															c-0.36-0.035-0.68,0.229-0.715,0.59c-0.034,0.36,0.23,0.679,0.59,0.714l0,0c0.074,0.007,7.433,0.788,11.59,6.672
															c0.209,0.295,0.618,0.366,0.914,0.157C440.496,109.392,440.518,109.375,440.538,109.356z"/>
													</g>
												</g>
											</g>
										</g>
									</g>
								</g>
							</g>
						</g>
					</g>
					<g>
						<g>
							<g>
								<g>
									<g>
										<g>
											<g>
												<g>
													<g>
														<path fill="#F3796B" d="M428.226,120.377c0.191-0.175,0.269-0.455,0.173-0.712
															c-2.731-7.333,1.658-11.621,1.703-11.663c0.262-0.25,0.273-0.664,0.023-0.926c-0.246-0.26-0.654-0.273-0.917-0.033
															c-0.003,0.003-0.006,0.006-0.009,0.009c-0.208,0.197-5.06,4.934-2.029,13.069c0.126,0.339,0.504,0.512,0.843,0.385
															C428.094,120.477,428.166,120.432,428.226,120.377z"/>
													</g>
												</g>
											</g>
										</g>
									</g>
								</g>
							</g>
						</g>
					</g>
				</g>
				<g>
					<g>
						<g>
							<path fill="#12183A" d="M354.213,108.491l-0.014-0.051l0.002-0.001c0,0,0.001-0.004,0.006,0.006l0.023,0.047l0.06,0.136
								l0.142,0.325l0.314,0.725c0.22,0.501,0.456,1.019,0.7,1.54c0.488,1.045,1,2.11,1.544,3.166
								c1.095,2.111,2.241,4.227,3.493,6.278c0.627,1.025,1.257,2.049,1.908,3.057c0.653,1.007,1.325,2.001,2.014,2.981
								c0.685,0.982,1.4,1.939,2.117,2.893c0.716,0.954,1.452,1.89,2.205,2.807c6.004,7.366,12.997,13.656,20.829,18.476
								c0.488,0.304,0.979,0.601,1.479,0.887c0.493,0.296,0.996,0.572,1.498,0.852l0.376,0.21c-0.159-0.092-0.333-0.165-0.521-0.253
								c-0.369-0.156-0.786-0.313-1.213-0.42c-0.43-0.112-0.867-0.194-1.292-0.23c-0.416-0.045-0.818-0.047-1.172-0.028
								c-0.701,0.034-1.226,0.171-1.527,0.263c-0.31,0.1-0.443,0.177-0.448,0.188c-0.011,0.033,0.394-0.175,0.905-0.568
								c0.517-0.392,1.157-0.944,1.834-1.593c0.677-0.652,1.39-1.399,2.107-2.209c1.453-1.614,2.916-3.471,4.374-5.416
								c2.907-3.914,5.744-8.221,8.494-12.64c1.382-2.209,2.739-4.457,4.07-6.724c0.673-1.129,1.337-2.266,1.988-3.402l1.903-3.292
								l23.188,10.544l-0.432,1.123l-0.412,1.042l-0.831,2.051c-0.568,1.354-1.146,2.696-1.735,4.036
								c-1.192,2.67-2.44,5.318-3.753,7.956c-2.646,5.268-5.529,10.478-8.949,15.675c-1.71,2.605-3.568,5.196-5.694,7.819
								c-1.07,1.307-2.215,2.622-3.481,3.948c-1.267,1.327-2.663,2.663-4.309,4.007c-1.65,1.34-3.544,2.711-6.032,3.993
								c-1.241,0.637-2.662,1.242-4.299,1.743c-1.627,0.498-3.526,0.883-5.612,0.987c-1.046,0.051-2.142,0.024-3.248-0.084
								c-1.113-0.118-2.235-0.316-3.334-0.611c-1.093-0.296-2.171-0.67-3.168-1.119c-0.51-0.219-0.985-0.466-1.456-0.709
								l-0.533-0.292c-0.713-0.39-1.426-0.777-2.126-1.188c-0.706-0.401-1.404-0.814-2.097-1.237c-1.39-0.838-2.752-1.719-4.1-2.62
								c-1.335-0.918-2.659-1.851-3.949-2.826c-1.298-0.967-2.562-1.973-3.807-2.999c-1.235-1.038-2.457-2.09-3.642-3.178
								c-4.757-4.335-9.053-9.101-12.888-14.15c-1.917-2.527-3.718-5.127-5.392-7.799c-1.673-2.671-3.262-5.387-4.697-8.186
								c-0.72-1.398-1.413-2.81-2.079-4.237c-0.668-1.427-1.304-2.871-1.899-4.342c-0.599-1.47-1.175-2.956-1.713-4.486
								c-0.267-0.768-0.527-1.544-0.783-2.346c-0.127-0.404-0.255-0.807-0.381-1.235l-0.431-1.512L354.213,108.491z"/>
						</g>
					</g>
				</g>
				<g>
					<g>
						<g>
							<g>
								<path fill="#0B0C13" d="M393.227,163.655c-0.349,0.115-0.738-0.04-0.906-0.378c-2.558-5.14-3.742-11.549-3.792-11.82
									c-0.074-0.408,0.197-0.799,0.604-0.873c0.407-0.074,0.798,0.196,0.873,0.604c0.011,0.064,1.197,6.474,3.658,11.419
									c0.185,0.372,0.033,0.822-0.338,1.007C393.294,163.631,393.26,163.645,393.227,163.655z"/>
							</g>
						</g>
					</g>
					<g>
						<g>
							<g>
								<path fill="#0B0C13" d="M387.443,159.436c-0.131,0.043-0.274,0.051-0.418,0.015c-0.402-0.101-0.646-0.509-0.545-0.911
									c0.056-0.22,1.365-5.413,2.164-7.05c0.181-0.373,0.63-0.527,1.003-0.346s0.527,0.631,0.346,1.003
									c-0.73,1.498-2.044,6.706-2.057,6.758C387.871,159.164,387.679,159.357,387.443,159.436z"/>
							</g>
						</g>
					</g>
				</g>
				<g>
					<g>
						<g>
							<g>
								<path fill="#0B0C13" d="M430.154,139.392c-0.21,0.07-0.449,0.045-0.649-0.086c-7.432-4.912-22.693-11.525-22.847-11.592
									c-0.38-0.165-0.556-0.606-0.392-0.987c0.165-0.38,0.606-0.556,0.987-0.391c0.154,0.067,15.536,6.732,23.079,11.717
									c0.346,0.229,0.44,0.694,0.212,1.04C430.448,139.239,430.31,139.341,430.154,139.392z"/>
							</g>
						</g>
					</g>
				</g>
			</g>
			<g>
				<g>
					<g>
						<g>
							<g>
								<g>
									<path fill="#12183A" d="M354.432,108.954c1.973,5.984-1.301,20.515,1.874,46.093c0.232,1.876,0.501,3.819,0.806,5.831
										c0.29,1.883,0.612,3.828,0.975,5.837c0.335,1.868,0.709,3.795,1.112,5.769c0.357,1.732,0.743,3.506,1.158,5.322
										c0.427,1.865,0.88,3.77,1.374,5.725c0.138,0.553,0.289,1.146,0.451,1.771c0.038,0.157,0.078,0.313,0.12,0.475
										c0.038,0.141,0.075,0.284,0.112,0.431c0.027,0.108,0.054,0.216,0.084,0.323c0.021,0.079,0.041,0.158,0.062,0.238
										c0.036,0.142,0.072,0.285,0.111,0.428c0.006,0.028,0.013,0.057,0.022,0.085c0.043,0.175,0.09,0.349,0.137,0.525
										c0.006,0.025,0.012,0.052,0.02,0.076c0.039,0.151,0.079,0.306,0.122,0.461c0.188,0.723,0.387,1.476,0.594,2.256
										c0.053,0.194,0.104,0.392,0.158,0.588c0.069,0.261,0.14,0.527,0.212,0.796c0.141,0.526,0.287,1.063,0.434,1.609
										c0.074,0.273,0.148,0.55,0.225,0.825c0.158,0.588,0.321,1.183,0.487,1.787c0.03,0.109,0.062,0.222,0.091,0.334
										c0.394,1.438,0.805,2.921,1.229,4.437c0.193,0.685,0.388,1.375,0.584,2.072c0.238,0.84,0.479,1.688,0.724,2.539
										c0.355,1.246,0.72,2.501,1.086,3.754c0.155,0.531,0.312,1.062,0.467,1.592c0.142,0.479,0.285,0.957,0.427,1.437
										c0.173,0.574,0.342,1.147,0.515,1.72c0.114,0.383,0.229,0.762,0.346,1.141c0.07,0.238,0.143,0.474,0.214,0.709
										c0.146,0.473,0.289,0.942,0.433,1.41c0.143,0.468,0.288,0.932,0.432,1.394c0.102,0.325,0.203,0.648,0.301,0.972
										c0.093,0.287,0.181,0.572,0.271,0.854c0.025,0.077,0.048,0.153,0.073,0.231c0.052,0.164,0.103,0.328,0.155,0.488
										c0.108,0.335,0.212,0.665,0.317,0.995c0.124,0.385,0.248,0.767,0.37,1.146c0.99,3.043,1.956,5.869,2.865,8.321
										c-6.757,7.773-18.241,14.557-31.742,18.633l-7.49-4.872l-6.271,7.946c-13.193,1.933-27.315,1.174-40.339-3.566
										c-4.3-8.791-11.389-41.037-13.396-50.685c-0.4-1.919-0.761-3.849-1.092-5.781c-1.596-9.288-2.449-18.725-3.024-28.63
										c-0.033-0.54-0.061-1.079-0.092-1.62c-0.004-0.063-0.009-0.127-0.011-0.194c-0.612-8.347-11.519-32.948-10.42-41.801
										c2.176-17.542,13.358-12.923,23.438-15.625c3.308-0.887,6.089-2.012,8.368-3.162c0.95-0.478,1.809-0.961,2.588-1.433
										c0.326-0.193,0.63-0.383,0.922-0.58c3.131-2.029,4.845-3.744,4.845-3.744l22.866-2.388
										c2.265,2.664,4.934,4.208,7.737,5.206c0.311,0.106,0.621,0.212,0.938,0.313c0.468,0.146,0.941,0.28,1.412,0.4
										C343.299,102.27,351.85,101.118,354.432,108.954z"/>
								</g>
							</g>
						</g>
						<g>
							<g>
								<path fill="#0B0C13" d="M297.039,232.075c-0.254,0-0.493-0.156-0.587-0.408c-12.513-33.586-18.99-91.587-19.054-92.168
									c-0.038-0.344,0.21-0.653,0.554-0.691c0.344-0.036,0.653,0.21,0.691,0.554c0.064,0.581,6.523,58.43,18.982,91.868
									c0.121,0.324-0.044,0.685-0.368,0.806C297.185,232.063,297.111,232.075,297.039,232.075z"/>
							</g>
						</g>
						<g>
							<g>
								<g>
									
										<ellipse transform="matrix(0.9496 -0.3133 0.3133 0.9496 -18.2465 104.7535)" fill="#CF2027" cx="316.774" cy="109.143" rx="2.51" ry="1.387"/>
								</g>
							</g>
						</g>
						<g>
							<g>
								<g>
									
										<ellipse transform="matrix(0.9496 -0.3133 0.3133 0.9496 -16.9156 107.8231)" fill="#CF2027" cx="326.989" cy="106.538" rx="2.51" ry="1.387"/>
								</g>
							</g>
						</g>
						<g>
							<g>
								<g>
									<path fill="#0B0C13" d="M332.263,111.214c-0.279,0-0.534-0.188-0.606-0.471c-0.086-0.335,0.116-0.676,0.451-0.762
										c8.818-2.258,9.37-7.567,9.39-7.792c0.029-0.343,0.332-0.596,0.673-0.573c0.344,0.027,0.601,0.325,0.575,0.669
										c-0.019,0.261-0.586,6.414-10.327,8.908C332.367,111.208,332.314,111.214,332.263,111.214z"/>
								</g>
							</g>
						</g>
						<g>
							<g>
								<path fill="#0B0C13" d="M345.819,166.516c-11.763,0-21.951-3.019-28.773-5.758c-8.502-3.414-13.775-7.155-13.828-7.192
									c-0.282-0.201-0.346-0.592-0.146-0.874c0.201-0.281,0.593-0.346,0.874-0.145c0.051,0.037,5.229,3.706,13.602,7.063
									c7.713,3.093,19.795,6.548,33.559,5.443c0.346-0.026,0.646,0.229,0.675,0.574c0.027,0.345-0.229,0.646-0.574,0.674
									C349.381,166.448,347.582,166.516,345.819,166.516z"/>
							</g>
						</g>
						<g>
							<g>
								<g>
									<path fill="#0B0C13" d="M310.217,188.646c0,0,28.104-7.163,45.608-7.373l5.35,23.174c0,0-27.748,4.666-45.306,7.727
										L310.217,188.646z"/>
								</g>
							</g>
						</g>
						<g>
							<g>
								<g>
									<path fill="#0B0C13" d="M294.458,116.648c-5.412,0-9.549-1.515-12.373-3.071c-4.495-2.479-6.676-5.531-6.767-5.66
										c-0.199-0.283-0.131-0.673,0.151-0.872c0.282-0.2,0.673-0.131,0.872,0.15l0,0c0.021,0.03,2.14,2.979,6.403,5.314
										c3.925,2.151,10.536,4.209,19.742,1.803c0.333-0.086,0.676,0.113,0.764,0.448c0.087,0.334-0.113,0.676-0.447,0.764
										C299.751,116.323,296.967,116.648,294.458,116.648z"/>
								</g>
							</g>
						</g>
						<g>
							<g>
								<path fill="#28100C" d="M366.401,200.977c-0.425-1.516-0.836-2.999-1.229-4.437
									C365.568,197.979,365.977,199.461,366.401,200.977z"/>
							</g>
						</g>
						<g>
							<g>
								<path fill="#28100C" d="M364.369,193.594c-0.146-0.547-0.293-1.083-0.434-1.609
									C364.078,192.51,364.223,193.047,364.369,193.594z"/>
							</g>
						</g>
					</g>
					<g>
						<g>
							<g>
								<path fill="#0B0C13" d="M358.183,163.632c-0.044,0.015-0.09,0.025-0.139,0.032c-0.411,0.054-0.787-0.236-0.842-0.647
									c-1.366-10.464-2.878-22.894-3.024-26.397c-0.017-0.415,0.305-0.764,0.719-0.781c0.414-0.018,0.765,0.304,0.781,0.718
									c0.145,3.456,1.651,15.834,3.014,26.266C358.738,163.185,358.519,163.521,358.183,163.632z"/>
							</g>
						</g>
					</g>
				</g>
				<g>
					<g>
						<g>
							<g>
								<g>
									<g>
										<path fill="#28100C" d="M330.84,46.856c0,0,7.254,5.696,2.495,14.387C333.335,61.243,330.729,51.094,330.84,46.856z"/>
									</g>
								</g>
							</g>
							<g>
								<g>
									<g>
										<path fill="#28100C" d="M301.805,86.063c0,0-4.702,4.566-5.668,1.196s0.67-5.05,0.67-5.05s-5.076,4.878-5.158,1.204
											c-0.082-3.675,2.567-6.955,2.567-6.955s-4.711-3.448-3.175-8.966c1.537-5.518,1.729-9.563,0.189-14.081
											c-1.54-4.518-0.836-9.191,1.395-11.213c3.262-2.957,8.004-2.497,8.004-2.497s2.523-8.263,11.964-8.042
											c9.44,0.221,14.937-7.145,19.701-5.229c4.764,1.917,10.22,17.647-2.594,22.307
											C329.7,48.736,304.315,65.756,301.805,86.063z"/>
									</g>
								</g>
							</g>
							<g>
								<g>
									<g>
										<g>
											<g>
												<g>
													<g>
														<path fill="#F79A86" d="M325.774,90.554l0.623,5.966c-0.639,0.637-1.293,1.201-1.957,1.7
															c-9.708,7.303-21.688,0.771-21.688,0.771l-2.162-20.683l22.18,10.787L325.774,90.554z"/>
													</g>
												</g>
											</g>
										</g>
									</g>
								</g>
								<g>
									<g>
										<g>
											<g>
												<g>
													<g>
														<path fill="#28100C" d="M325.719,90.033l0.678,6.487c-0.639,0.637-1.293,1.201-1.957,1.7
															c-9.185-2.57-16.571-11.153-16.571-11.153l14.902,2.027L325.719,90.033z"/>
													</g>
												</g>
											</g>
										</g>
									</g>
								</g>
							</g>
							<g>
								<g>
									<g>
										<g>
											<g>
												<g>
													<path fill="#F3796B" d="M330.466,63.339c0,0,2.97-4.357,5.303-0.554c2.333,3.803,1.707,12.059-3.587,11.271
														L330.466,63.339z"/>
												</g>
											</g>
										</g>
									</g>
								</g>
							</g>
							<g>
								<g>
									<g>
										<path fill="#F79A86" d="M335.546,76.998c0,0,1.307,12.332-11.525,13.644c-12.752,1.309-22.486-7.795-22.987-8.212
											c-0.009-0.007-0.015-0.011-0.015-0.011l-0.41-2.577l-2.131-13.379l-1.14-7.15c0,0-2.981-12.778,9.077-16.425
											c8.81-2.666,17.397-2.054,22.142,2.192c0.153,0.137,0.303,0.278,0.445,0.425c1.512,1.508,2.574,3.43,3.051,5.777
											l1.748,12.875l0.429,3.155L335.546,76.998z"/>
									</g>
								</g>
							</g>
							<g>
								<g>
									<g>
										<path fill="#28100C" d="M298.479,66.463c0,0,2.888,0.903,4.16,4.406l0,0c1.908-0.199,3.243-1.981,2.895-3.868
											c-0.203-1.095-0.457-2.41-0.762-3.888c-0.916-4.432-2.332-5.834,0.239-8.611c2.571-2.776,0.154-4.425,2.495-6.39
											c2.567-2.155,8.914,1.661,13.581,0.693c5.541-1.148,5.071-4.907,9.896-0.602c0,0-1.28-6.487-7.576-8.244
											c-6.296-1.757-24.002-0.208-26.713,8.225C293.98,56.619,298.479,66.463,298.479,66.463z"/>
									</g>
								</g>
							</g>
							<g>
								<g>
									<g>
										<g>
											<g>
												<g>
													<path fill="#28100C" d="M308.63,57.152L308.63,57.152c0.851,1.459,2.713,1.969,4.187,1.144
														c0.861-0.481,1.884-0.974,2.979-1.334c1.553-0.512,2.367-2.211,1.773-3.735l0,0
														C317.568,53.227,311.167,53.308,308.63,57.152z"/>
												</g>
											</g>
										</g>
									</g>
								</g>
							</g>
							<g>
								<g>
									<g>
										<g>
											<g>
												<g>
													<path fill="#28100C" d="M332.354,54.497L332.354,54.497c-0.5,1.51-2.116,2.343-3.635,1.87
														c-0.887-0.276-1.925-0.531-3.004-0.65c-1.531-0.169-2.612-1.577-2.361-3.096l0,0
														C323.354,52.62,329.269,51.448,332.354,54.497z"/>
												</g>
											</g>
										</g>
									</g>
								</g>
							</g>
							<g>
								<g>
									<g>
										<g>
											<g>
												<g>
													
														<ellipse transform="matrix(0.9946 -0.1039 0.1039 0.9946 -5.3636 32.9075)" fill="#F3796B" cx="313.105" cy="67.924" rx="4.153" ry="1.634"/>
												</g>
											</g>
										</g>
									</g>
								</g>
							</g>
							<g>
								<g>
									<g>
										<g>
											<g>
												<g>
													<path fill="#F3796B" d="M334.231,67.312c-0.315,0.065-0.648,0.116-0.99,0.152c-2.28,0.238-4.205-0.297-4.299-1.195
														c-0.094-0.898,1.68-1.82,3.959-2.058c0.309-0.032,0.611-0.05,0.902-0.054L334.231,67.312z"/>
												</g>
											</g>
										</g>
									</g>
								</g>
							</g>
							<g>
								<g>
									<g>
										<g>
											<g>
												<g>
													
														<ellipse transform="matrix(0.9946 -0.104 0.104 0.9946 -4.7948 33.2158)" fill="#28100C" cx="316.223" cy="62.602" rx="1.256" ry="2.245"/>
												</g>
											</g>
										</g>
									</g>
								</g>
							</g>
							<g>
								<g>
									<g>
										<g>
											<g>
												<g>
													
														<ellipse transform="matrix(0.9946 -0.1038 0.1038 0.9946 -4.5884 34.4396)" fill="#28100C" cx="328.615" cy="61.307" rx="1.256" ry="2.245"/>
												</g>
											</g>
										</g>
									</g>
								</g>
							</g>
							<g>
								<g>
									<g>
										<g>
											<g>
												<g>
													<path fill="#28100C" d="M325.832,73.923c-4.507,0.471-8.603-3.009-8.657-3.056c-0.213-0.184-0.236-0.506-0.052-0.719
														c0.184-0.213,0.506-0.237,0.719-0.053c0.268,0.231,6.614,5.606,11.772,1.047c0.211-0.187,0.533-0.167,0.72,0.044
														c0.187,0.211,0.167,0.533-0.044,0.72C328.846,73.184,327.316,73.768,325.832,73.923z"/>
												</g>
											</g>
										</g>
									</g>
								</g>
							</g>
							<g>
								<g>
									<g>
										<g>
											<g>
												<g>
													<path fill="#28100C" d="M304.527,77.006c-0.044,0.143-1.274,4.078-3.493,5.424c-0.008-0.007-0.014-0.011-0.014-0.011
														l-0.41-2.578C300.611,79.842,302.6,79.284,304.527,77.006z"/>
												</g>
											</g>
										</g>
									</g>
								</g>
							</g>
							<g>
								<g>
									<g>
										<g>
											<g>
												<g>
													<path fill="#F79A86" d="M301.374,68.677c0,0-5.624-6.108-8.692-0.526c-2.529,4.601,4.268,15.19,9.76,10.745
														L301.374,68.677z"/>
												</g>
											</g>
										</g>
									</g>
								</g>
							</g>
							<g>
								<g>
									<g>
										<g>
											<g>
												<g>
													<path fill="#28100C" d="M301.559,76.971c-0.255,0.027-0.495-0.143-0.551-0.399c-1.072-4.956-5.454-6.265-5.64-6.318
														c-0.271-0.078-0.428-0.359-0.351-0.63c0.077-0.271,0.358-0.429,0.628-0.352c0.21,0.06,5.154,1.515,6.359,7.084
														c0.06,0.275-0.115,0.547-0.391,0.606C301.596,76.966,301.577,76.969,301.559,76.971z"/>
												</g>
											</g>
										</g>
									</g>
								</g>
							</g>
							<g>
								<g>
									<g>
										<g>
											<g>
												<g>
													<path fill="#28100C" d="M296.502,74.39c-0.147,0.015-0.301-0.033-0.414-0.146c-0.199-0.199-0.2-0.521-0.001-0.721
														c0.186-0.186,1.855-1.809,3.419-1.579c0.279,0.041,0.472,0.3,0.431,0.579s-0.301,0.471-0.579,0.43
														c-0.9-0.133-2.145,0.886-2.548,1.29C296.724,74.33,296.615,74.378,296.502,74.39z"/>
												</g>
											</g>
										</g>
									</g>
								</g>
							</g>
							<g>
								<g>
									<g>
										<g>
											<g>
												<g>
													<path fill="#28100C" d="M323.162,68.153c-0.28,0.029-0.531-0.174-0.56-0.455s0.174-0.531,0.454-0.561
														c1.867-0.195,2.636-1.272,2.881-1.729c-2.46-3.961-4.911-7.955-4.936-7.996c-0.147-0.24-0.072-0.555,0.168-0.702
														c0.24-0.147,0.554-0.072,0.702,0.168c0.025,0.042,2.57,4.19,5.076,8.223c0.081,0.13,0.099,0.29,0.049,0.436
														C326.964,65.633,326.169,67.839,323.162,68.153z"/>
												</g>
											</g>
										</g>
									</g>
								</g>
							</g>
						</g>
					</g>
				</g>
			</g>
			<g>
				<g>
					<g>
						<g>
							<path fill="#575592" d="M286.466,239.466c0,0,1.768,51.612,64.063,31.058c33.273-10.979,48.027-19.409,48.027-19.409
								s10.495,29.116,16.132,41S436,333.07,436,333.07l26.876-6.617c0,0-31.304-108.94-50.633-113.546
								c-19.33-4.605-42.519,2.721-83.423,11.999C328.82,224.906,293.095,230.38,286.466,239.466z"/>
						</g>
					</g>
				</g>
				<g>
					<g>
						<g>
							<path fill="#575592" d="M436.753,323.296c-0.322,0.106-0.687-0.018-0.873-0.318c-8.678-14.043-17.296-35.309-24.22-52.396
								c-2.915-7.193-5.433-13.405-7.533-18.048c-2.845-6.286-4.002-7.539-4.438-7.727c-1.93-0.827-8.265,2.037-16.285,5.663
								c-11.617,5.253-29.175,13.191-49.592,17.427c-10.475,2.173-19.546,0.751-26.962-4.227
								c-13.201-8.859-16.459-25.652-16.592-26.363c-0.076-0.407,0.193-0.799,0.601-0.874c0.407-0.076,0.799,0.192,0.875,0.6
								c0.031,0.168,3.287,16.897,15.962,25.397c7.066,4.739,15.75,6.084,25.811,3.997c20.255-4.202,37.721-12.1,49.279-17.325
								c9.327-4.217,14.957-6.763,17.495-5.674c2.309,0.989,5.967,9.798,12.771,26.59c6.903,17.035,15.494,38.235,24.106,52.171
								c0.218,0.353,0.108,0.814-0.244,1.033C436.862,323.253,436.809,323.277,436.753,323.296z"/>
						</g>
					</g>
				</g>
				<g>
					<g>
						<g>
							<path fill="#FFFFFF" d="M459.626,318.108c-0.015,0.005-0.029,0.01-0.044,0.014l-27.166,7.183
								c-0.4,0.106-0.812-0.133-0.917-0.533c-0.106-0.401,0.13-0.818,0.534-0.918l27.165-7.183c0.4-0.106,0.812,0.133,0.917,0.533
								C460.218,317.59,460,317.985,459.626,318.108z"/>
						</g>
					</g>
				</g>
			</g>
			<g>
				<g>
					<g>
						<g>
							<path fill="#1B2D37" d="M347.597,227.237l82.402-7.771c0.159-0.015,0.275-0.155,0.26-0.313l-0.965-10.24
								c-0.016-0.158-0.156-0.274-0.314-0.26l-82.402,7.771c-0.159,0.016-0.275,0.155-0.26,0.313l0.966,10.24
								C347.298,227.136,347.438,227.252,347.597,227.237z"/>
						</g>
					</g>
				</g>
				<g>
					<g>
						<g>
							<path fill="#1B2D37" d="M438.946,218.623c3.123-0.294,5.658-2.651,6.18-5.744l10.037-59.576
								c0.614-3.641-2.392-6.874-6.067-6.527l-37.151,3.503c-2.506,0.236-4.55,2.111-5,4.588l-12.35,67.938L438.946,218.623z"/>
						</g>
					</g>
				</g>
				<g>
					<g>
						<g>
							<path fill="#F05345" d="M414.787,206.578l-0.684,2.714l2.523-0.193l-0.44,3.203l-2.919,0.224l-0.757,2.952l-3.337,0.256
								l0.757-2.952l-2.064,0.158l-0.757,2.952l-3.336,0.256l0.757-2.952l-2.523,0.193l0.44-3.203l2.919-0.224l0.683-2.715
								l-2.522,0.193l0.44-3.203l2.919-0.224l0.757-2.952l3.337-0.256l-0.757,2.952l2.064-0.158l0.756-2.952l3.337-0.256
								l-0.757,2.953l2.523-0.194l-0.44,3.203L414.787,206.578z M411.45,206.833l-2.064,0.159l-0.683,2.714l2.064-0.158
								L411.45,206.833z"/>
						</g>
					</g>
				</g>
				<g>
					<g>
						<g>
							<g>
								<g>
									<path fill="#FBAB48" d="M450.585,163.118c-0.868,3.891-4.399,7.291-7.888,7.596c-3.489,0.305-5.613-2.602-4.745-6.492
										s4.4-7.292,7.889-7.596S451.453,159.228,450.585,163.118z"/>
								</g>
							</g>
						</g>
					</g>
					<g>
						<g>
							<g>
								<g>
									<g>
										<path fill="#28100C" d="M443.525,162.414c-0.173,0.778-0.56,1.43-0.863,1.457s-0.408-0.583-0.234-1.361
											c0.173-0.778,0.56-1.43,0.863-1.457C443.595,161.026,443.699,161.635,443.525,162.414z"/>
									</g>
								</g>
							</g>
						</g>
						<g>
							<g>
								<g>
									<g>
										<path fill="#28100C" d="M446.821,162.125c-0.174,0.778-0.561,1.43-0.863,1.457c-0.304,0.026-0.409-0.583-0.235-1.361
											c0.174-0.778,0.561-1.431,0.864-1.457C446.89,160.738,446.995,161.347,446.821,162.125z"/>
									</g>
								</g>
							</g>
						</g>
					</g>
					<g>
						<g>
							<g>
								<g>
									<path fill="#28100C" d="M443.559,167.096c-2.717,0.237-2.663-2.737-2.662-2.767c0.005-0.163,0.136-0.334,0.291-0.383
										c0.157-0.049,0.279,0.043,0.275,0.205c-0.003,0.108-0.035,2.53,2.232,2.332c2.269-0.198,3.338-2.715,3.382-2.823
										c0.07-0.167,0.24-0.285,0.38-0.261c0.14,0.023,0.197,0.178,0.128,0.345C447.572,163.775,446.274,166.858,443.559,167.096z"
										/>
								</g>
							</g>
						</g>
					</g>
				</g>
				<g>
					<g>
						<g>
							<path fill="#1B2D37" d="M406.942,154.869l-12.247,67.377l-4.245,0.4l12.246-67.377c0.455-2.479,2.495-4.355,5.002-4.592
								l4.246-0.4C409.437,150.514,407.396,152.391,406.942,154.869z"/>
						</g>
					</g>
					<g>
						<g>
							<path fill="#27343A" d="M395.08,221.805c-0.036,0-0.073-0.003-0.111-0.01c-0.34-0.061-0.566-0.387-0.505-0.727l12.113-67.231
								c0.061-0.34,0.385-0.568,0.727-0.505c0.34,0.062,0.566,0.387,0.505,0.728l-12.113,67.23
								C395.642,221.593,395.378,221.805,395.08,221.805z"/>
						</g>
					</g>
				</g>
				<g>
					<g>
						<g>
							<path fill="#26343A" d="M420.454,185.872c-0.5,3.729,2.053,6.474,5.702,6.129c3.649-0.344,7.014-3.646,7.514-7.375
								c0.5-3.729-2.053-6.473-5.702-6.129S420.954,182.144,420.454,185.872z"/>
						</g>
					</g>
				</g>
			</g>
			<g>
				<g>
					<g>
						<g>
							<path fill="#F79A86" d="M368.392,202.065c0,0,19.338-4.316,26.096-1.102l-2.365,12.271c0,0-10.902-0.757-13.438,0.501
								c-2.535,1.259-2.682,6.154-12.458,6.43L368.392,202.065z"/>
						</g>
					</g>
				</g>
				<g>
					<g>
						<g>
							<path fill="#12183A" d="M366.27,199.64l-2.27-0.367l-4.559-0.744c-3.037-0.509-6.073-1.049-9.096-1.615
								c-6.047-1.113-12.055-2.328-17.941-3.672c-2.94-0.678-5.849-1.398-8.702-2.151c-2.848-0.761-5.642-1.572-8.296-2.455
								c-2.641-0.885-5.19-1.822-7.291-2.807c-1.037-0.487-1.965-0.988-2.593-1.398c-0.008-0.006-0.014-0.01-0.022-0.016
								l-0.085-0.142c-0.347-0.554-0.666-1.124-0.995-1.689c-0.637-1.139-1.265-2.29-1.843-3.469
								c-1.178-2.347-2.215-4.781-3.159-7.264c-1.895-4.966-3.288-10.191-4.301-15.548c-0.5-2.679-0.89-5.394-1.183-8.13
								c-0.302-2.736-0.491-5.495-0.582-8.256c-0.104-2.762-0.105-5.531,0-8.265c0.053-1.367,0.133-2.724,0.242-4.048
								c0.051-0.663,0.108-1.316,0.17-1.946l0.101-0.91l0.075-0.615l-31.276-4.86l-0.082,0.562l-0.057,0.411l-0.093,0.765
								l-0.161,1.444c-0.096,0.941-0.176,1.861-0.245,2.774c-0.126,1.828-0.209,3.625-0.255,5.418
								c-0.095,3.583-0.046,7.137,0.135,10.689c0.389,7.099,1.316,14.184,2.862,21.207c0.387,1.753,0.812,3.505,1.273,5.251
								c0.466,1.741,0.981,3.48,1.524,5.21c1.096,3.456,2.362,6.882,3.792,10.253c1.335,3.094,2.807,6.145,4.446,9.121
								c0.139,0.261,0.283,0.521,0.43,0.779c0.892,1.615,1.85,3.202,2.835,4.772c0.501,0.777,0.997,1.561,1.522,2.328l0.388,0.578
								l0.195,0.286l0.389,0.563c0.702,0.989,1.414,1.823,2.089,2.527c0.678,0.714,1.342,1.327,1.972,1.859
								c0.639,0.546,1.242,1.007,1.837,1.437c1.178,0.844,2.282,1.526,3.335,2.122c1.486,0.834,2.884,1.511,4.231,2.104
								c0.563,0.248,1.117,0.482,1.664,0.706c1.861,0.758,3.647,1.39,5.403,1.963c1.754,0.576,3.471,1.075,5.176,1.536
								c3.402,0.923,6.729,1.689,10.034,2.375c3.3,0.691,6.574,1.278,9.835,1.816c6.518,1.08,12.985,1.918,19.445,2.628
								c3.229,0.342,6.457,0.652,9.688,0.93c1.616,0.141,3.232,0.275,4.855,0.394l2.439,0.166l2.508,0.155l2.397-24.42
								L366.27,199.64z M304.895,183.96c-0.039-0.042-0.059-0.066-0.012-0.043c0.03,0.015,0.122,0.082,0.264,0.219
								c0.03,0.032,0.063,0.065,0.103,0.108C305.083,184.124,304.958,184.023,304.895,183.96z"/>
						</g>
					</g>
				</g>
				<g>
					<g>
						<path fill="#0B0C13" d="M295.031,211.734c-1.348-0.594-2.746-1.271-4.231-2.104c-1.054-0.596-2.158-1.278-3.335-2.122
							c-0.595-0.43-1.198-0.891-1.837-1.437c-0.629-0.532-1.293-1.146-1.972-1.859c-0.675-0.704-1.387-1.538-2.089-2.527
							l-0.389-0.563l-0.195-0.286l-0.388-0.578c-0.526-0.768-1.021-1.551-1.522-2.328c-0.985-1.57-1.943-3.157-2.835-4.772
							c-0.146-0.258-0.291-0.519-0.43-0.779c0.081-0.043,0.162-0.084,0.247-0.12C276.054,192.258,296.233,192.531,295.031,211.734z"
							/>
					</g>
				</g>
				<g>
					<g>
						<g>
							<path fill="#0B0C13" d="M337.137,222.441c-0.095,0.031-0.199,0.044-0.305,0.034c-0.254-0.024-25.613-2.485-39.809-9.146
								c-14.309-6.714-21.016-19.521-21.294-20.063c-0.189-0.368-0.044-0.82,0.324-1.01c0.369-0.188,0.821-0.045,1.011,0.323
								c0.066,0.128,6.767,12.9,20.597,19.39c13.961,6.551,39.06,8.986,39.312,9.011c0.413,0.039,0.716,0.405,0.676,0.817
								C337.62,222.105,337.411,222.351,337.137,222.441z"/>
						</g>
					</g>
				</g>
				<g>
					<g>
						<g>
							<g>
								<path fill="#0B0C13" d="M296.326,193.229c-0.252,0.084-0.542,0.03-0.749-0.165c-0.303-0.283-0.318-0.759-0.034-1.061
									c3.505-3.738,8.554-7.487,8.767-7.646c0.333-0.247,0.803-0.177,1.049,0.157c0.247,0.333,0.177,0.803-0.156,1.05
									c-0.051,0.037-5.154,3.828-8.565,7.465C296.549,193.124,296.441,193.19,296.326,193.229z"/>
							</g>
						</g>
					</g>
					<g>
						<g>
							<g>
								<path fill="#0B0C13" d="M304.641,185.939c-0.026,0.009-0.053,0.017-0.081,0.022c-2.986,0.629-6.922,1.906-6.961,1.919
									c-0.394,0.128-0.817-0.088-0.946-0.481c-0.128-0.394,0.086-0.815,0.479-0.945c0.001,0,0.002-0.001,0.003-0.001
									c0.164-0.054,4.052-1.314,7.116-1.96c0.406-0.086,0.804,0.174,0.89,0.579C305.219,185.45,305,185.821,304.641,185.939z"/>
							</g>
						</g>
					</g>
				</g>
				<g>
					<g>
						<g>
							<g>
								<path fill="#0B0C13" d="M297.893,167.613c-0.007,0.003-0.015,0.005-0.022,0.008c-0.398,0.117-0.815-0.109-0.933-0.507
									c-0.286-0.966-7.005-23.792-7.009-35.281c0-0.414,0.336-0.75,0.75-0.751c0.415,0,0.75,0.336,0.751,0.75
									c0.003,11.273,6.877,34.621,6.947,34.855C298.493,167.078,298.277,167.487,297.893,167.613z"/>
							</g>
						</g>
					</g>
					<g>
						<g>
							<g>
								<path fill="#0E0F14" d="M291.382,138.929c-0.205,0.067-0.438,0.047-0.634-0.077c-0.352-0.22-0.458-0.683-0.237-1.034
									l2.461-3.925c0.22-0.351,0.684-0.457,1.035-0.237c0.351,0.22,0.457,0.684,0.237,1.035l-2.461,3.925
									C291.686,138.77,291.542,138.876,291.382,138.929z"/>
							</g>
						</g>
					</g>
				</g>
				<g>
					<g>
						<g>
							<g>
								<g>
									<path fill="#0B0C13" d="M354.359,223.38c-0.099,0.033-0.206,0.045-0.316,0.033c-0.412-0.045-0.709-0.415-0.665-0.827
										l2.578-23.684c0.045-0.411,0.415-0.71,0.828-0.664c0.412,0.045,0.709,0.415,0.664,0.827l-2.577,23.683
										C354.838,223.05,354.63,223.291,354.359,223.38z"/>
								</g>
							</g>
						</g>
					</g>
				</g>
			</g>
			<g>
				<path fill="#FFFFFF" d="M334.68,185.814c-0.262,0-0.506-0.166-0.594-0.428c-7.264-21.671-17.746-75.653-17.851-76.196
					c-0.066-0.339,0.156-0.667,0.496-0.733c0.34-0.065,0.668,0.156,0.733,0.496c0.105,0.542,10.571,54.443,17.809,76.036
					c0.11,0.328-0.066,0.683-0.395,0.792C334.813,185.804,334.746,185.814,334.68,185.814z"/>
			</g>
			<g>
				<path fill="#FFFFFF" d="M350.197,183.755c-0.309,0-0.577-0.228-0.62-0.541c-4.421-32.26-22.874-75.681-23.06-76.116
					c-0.136-0.318,0.012-0.686,0.33-0.822c0.318-0.135,0.686,0.012,0.822,0.33c0.187,0.437,18.706,44.013,23.15,76.438
					c0.047,0.343-0.193,0.658-0.535,0.705C350.254,183.753,350.226,183.755,350.197,183.755z"/>
			</g>
			<g>
				<path fill="#FFFFFF" d="M305.612,267.905c-1.331,0-2.764-0.464-4.22-1.375c-5.323-3.333-11.763-13.43-14.15-28.474
					c-0.054-0.342,0.179-0.662,0.52-0.717c0.342-0.056,0.662,0.179,0.716,0.521c2.326,14.655,8.495,24.427,13.578,27.608
					c1.726,1.081,3.366,1.431,4.743,1.012c1.104-0.335,1.956-1.091,2.604-2.312c4.43-8.346-3.273-33.499-3.352-33.752
					c-0.103-0.33,0.083-0.681,0.413-0.783c0.33-0.102,0.681,0.082,0.783,0.413c0.326,1.054,7.934,25.905,3.261,34.709
					c-0.8,1.509-1.927,2.492-3.346,2.924C306.666,267.83,306.147,267.905,305.612,267.905z"/>
			</g>
		</g>
	</g>
	<g>
		<g>
			<g>
				<g>
					<path fill="#696E78" d="M271.005,347.838c-0.164,0.703-0.354,1.39-0.574,2.059c-1.472,4.509-4.173,8.113-7.843,9.604
						c-13.903,5.645-26.971,3.691-53.566,3.073c-26.593-0.618-46.341-7.661-43.875-29.556c0.196-1.728,0.531-3.343,0.983-4.849
						c0.592-1.979,1.39-3.771,2.336-5.392c0,0,0,0,0-0.002c1.112-1.911,2.434-3.584,3.874-5.045
						c7.463-7.576,18.705-10.056,28.768-6.606c9.939,3.406,27.51,5.055,45.802,5.422
						C266.563,316.942,273.912,335.304,271.005,347.838z"/>
				</g>
			</g>
			<g>
				<g>
					<g>
						<path fill="#4F5B5D" d="M271.005,347.838c-0.164,0.703-0.354,1.39-0.574,2.059c-4.714,4.109-13.594,6.707-26.455,7.732
							c-4.043,0.325-8.488,0.483-13.271,0.483c-11.067,0-23.969-0.858-38.057-2.547c-11.918-1.433-19.981-5.632-23.969-12.484
							c-2.968-5.098-3.118-10.666-2.55-14.912c0.592-1.979,1.39-3.771,2.336-5.392c-1.033,3.174-3.298,12.17,1.131,19.778
							c3.813,6.548,11.612,10.57,23.176,11.96C234.568,359.531,263.019,357.095,271.005,347.838z"/>
					</g>
				</g>
			</g>
			<g>
				<g>
					<path fill="#4F5B5D" d="M191.539,320.746c-8.168,0.658-14.208,8.113-12.875,16.198c0.026,0.156,0.055,0.313,0.086,0.471
						c1.762,8.812,13.606,8.548,46.51,8.855c25.766,0.241,39.017-8.979,32.165-20.367
						C251.975,316.847,208.931,319.344,191.539,320.746z"/>
				</g>
			</g>
		</g>
		<g>
			<g>
				<g>
					<path fill="#28100C" d="M253.687,327.41c-11.985,14.927-60.894,15.772-67.309,4.593c-3.125-5.445-2.265-12.417-0.559-18.139
						c0.18-0.604,0.369-1.194,0.563-1.765c1.755-5.15,3.973-8.913,3.973-8.913s-0.204,5.319,17.836,3.405
						c2.064-0.218,4.407-0.311,6.921-0.278c0.466,0.005,0.942,0.015,1.42,0.029C235.985,306.926,264.047,314.509,253.687,327.41z"/>
				</g>
			</g>
			<g>
				<g>
					<g>
						<g>
							<path fill="#FBAB48" d="M214.392,318.516c-2.824,3.15-7.727,4.34-14.178,3.435c-0.145-0.02-0.29-0.042-0.434-0.064
								c-8.131-1.255-12.093-5.119-13.96-8.021c0.18-0.604,0.369-1.194,0.563-1.765c1.384,2.671,5.024,7.224,14.026,8.484
								c5.973,0.837,10.456-0.197,12.958-2.989c2.254-2.52,2.852-6.407,1.746-11.281c0.466,0.005,0.942,0.015,1.42,0.029
								C217.638,311.519,216.905,315.709,214.392,318.516z"/>
						</g>
					</g>
				</g>
			</g>
			<g>
				<g>
					<path fill="#28100C" d="M246.909,316.546c0,0,11.483-0.848,12.845-6.643c1.362-5.794-24.975-0.712-27.882-12.646
						c-2.906-11.933,8.74-21.447,12.522-17.957c4.482,4.136-5.333,5.897-5.86,12.036c-0.438,5.099,2.724,9.798,12.53,10.497
						c9.806,0.699,14.191,2.225,14.148,6.783c-0.046,4.96-7.99,10.075-12.82,10.396
						C247.563,319.334,246.909,316.546,246.909,316.546z"/>
				</g>
			</g>
			<g>
				<g>
					<g>
						<g>
							<path fill="#28100C" d="M196.531,298.799c0,0-3.409-4.432-8.954-7.382c-0.807-0.429-1.767,0.218-1.673,1.127l1.05,10.159
								C186.954,302.703,194.919,303.38,196.531,298.799z"/>
						</g>
					</g>
					<g>
						<g>
							<path fill="#5A4C54" d="M188.904,301.471c-0.45-2.303-0.562-4.724-1.092-7.439c0,0,5.986,3.568,6.344,5.533
								C194.156,299.564,190.853,302.065,188.904,301.471z"/>
						</g>
					</g>
				</g>
				<g>
					<g>
						<g>
							<path fill="#28100C" d="M206.927,299.205c0,0,4.678-2.82,10.811-3.592c1.005-0.126,1.74,0.931,1.286,1.836l-4.194,8.361
								C214.83,305.811,206.762,304.06,206.927,299.205z"/>
						</g>
					</g>
					<g>
						<g>
							<path fill="#5A4C54" d="M213.06,304.47c1.257-1.981,2.242-4.196,3.724-6.532c0,0-6.874,1.146-7.922,2.846
								C208.861,300.783,211.028,304.314,213.06,304.47z"/>
						</g>
					</g>
				</g>
				<g>
					<g>
						<path fill="#28100C" d="M192.083,298.973c0,0-7.089,1.083-6.557,9.391c0.533,8.308,8.622,9.192,8.622,9.192
							s1.442,2.673,6.436,3.753c3.198,0.691,7.961,0.473,9.167-1.878c0,0,6.945-2.545,6.864-8.734
							C216.527,303.839,208.262,295.421,192.083,298.973z"/>
					</g>
				</g>
			</g>
			<g>
				<g>
					<path fill="#28100C" d="M184.881,318.613c0,0,2.894,11.792,5.317,14.227c2.423,2.435,5.054,3.767,8.432,4.177
						c5.455,0.661,4.445,4.297,2.82,5.547c-1.885,1.448-5.224,0.623-10.237,0.623c-4.331,0-8.413-0.864-9.875-3.711
						c-1.463-2.847-1.365-11.272,0.19-16.01C182.488,320.543,183.84,319.016,184.881,318.613z"/>
				</g>
			</g>
			<g>
				<g>
					<path fill="#28100C" d="M221.516,319.391c0,0-2.894,11.792-5.317,14.228c-2.423,2.435-5.071,3.645-8.432,4.176
						c-4.11,0.649-3.729,4.534-2.82,5.547c1.587,1.77,5.223,0.624,10.236,0.624c4.331,0,9.452-1.734,10.915-4.58
						c1.463-2.847,0.326-10.403-1.23-15.142C223.909,321.32,222.557,319.793,221.516,319.391z"/>
				</g>
			</g>
			<g>
				<g>
					<path fill="#28100C" d="M245.731,317.042c0,0,7.63-1.826,10.087,3.923c3.867,9.044,0.776,14.21-9.531,15.646
						c-10.307,1.436-22.025,3.385-13.165-3.946C241.982,325.334,245.731,317.042,245.731,317.042z"/>
				</g>
			</g>
			<g>
				<g>
					<g>
						<path fill="#5A4C54" d="M204.663,312.396c0,0-3.078-0.328-3.898,0.05c-1.375,0.633,0.836,3.201,2.246,3.419
							c1.41,0.217,2.781-1.433,2.761-2.507C205.751,312.284,204.663,312.396,204.663,312.396z"/>
					</g>
				</g>
			</g>
			<g>
				<g>
					<path fill="#5A4C54" d="M206.247,310.025c-0.148-0.092-0.311,0.096-0.199,0.229c0.612,0.73,1.741,1.692,3.267,1.37
						c1.262-0.267,1.741-1.152,1.911-1.925c0.038-0.172-0.195-0.267-0.282-0.114c-0.325,0.571-0.958,1.153-2.187,1.232
						C207.829,310.877,206.875,310.416,206.247,310.025z"/>
				</g>
			</g>
			<g>
				<g>
					<path fill="#5A4C54" d="M194.312,309.395c-0.129-0.117-0.324,0.037-0.238,0.189c0.468,0.83,1.401,1.983,2.959,1.947
						c1.29-0.029,1.923-0.812,2.233-1.54c0.069-0.162-0.143-0.298-0.256-0.164c-0.424,0.501-1.153,0.958-2.376,0.809
						C195.709,310.523,194.857,309.895,194.312,309.395z"/>
				</g>
			</g>
		</g>
	</g>
</g>
<g>
	<g>
		<g>
			<g>
				<g>
					<ellipse fill="#F6F6F6" cx="100.463" cy="353.729" rx="63.634" ry="5.228"/>
				</g>
			</g>
		</g>
		<g>
			<g>
				<g>
					<g>
						<g>
							<path fill="#3D2027" d="M138.934,309.156H59.617c-0.505,0-0.915-0.409-0.915-0.915v-4.597c0-0.506,0.409-0.915,0.915-0.915
								h79.317c0.505,0,0.915,0.409,0.915,0.915v4.597C139.849,308.747,139.439,309.156,138.934,309.156z"/>
						</g>
					</g>
				</g>
			</g>
			<g>
				<g>
					<g>
						<g>
							<g>
								<path fill="#8C5D55" d="M62.268,231.512h74.176c1.233,0,2.233,1,2.233,2.232v9.113c0,1.233-1,2.232-2.233,2.232H62.268
									c-1.233,0-2.232-0.999-2.232-2.232v-9.113C60.036,232.512,61.035,231.512,62.268,231.512z"/>
							</g>
						</g>
					</g>
				</g>
			</g>
			<g>
				<g>
					<g>
						<g>
							<g>
								<g>
									<g>
										<g>
											<g>
												<g>
													<path fill="#86BC40" d="M98.617,196.194h-7.209c0,0-0.353-0.72-0.972-2.031c-0.295-0.619-0.65-1.37-1.059-2.244
														c-1.026-2.181-2.373-5.101-3.926-8.546c-0.013-0.028-0.028-0.06-0.041-0.09c-9.721-21.614-27.16-63.575-20.031-71.918
														c8.102-9.477,17.768,4.72,24.797,31.592c0.483,1.846,0.951,3.749,1.409,5.71c2.52,10.834,4.62,23.382,6.065,37.042
														c0.219,2.047,0.419,4.116,0.607,6.209C98.386,193.333,98.504,194.76,98.617,196.194z"/>
												</g>
											</g>
										</g>
									</g>
								</g>
							</g>
						</g>
						<g>
							<g>
								<path fill="#A5CF44" d="M98.257,191.919l-2.174,4.275h-4.676c0,0-0.351-0.72-0.972-2.03l-0.259-51.208
									C93.723,156.521,96.599,173.314,98.257,191.919z"/>
							</g>
						</g>
						<g>
							<g>
								<g>
									<g>
										<g>
											<g>
												<g>
													<g>
														<path fill="#A5CF44" d="M96.347,196.195h-1.178l-22.706-74.396c-0.09-0.298,0.077-0.612,0.374-0.704
															c0.298-0.09,0.614,0.077,0.704,0.375L96.347,196.195z"/>
													</g>
												</g>
											</g>
										</g>
									</g>
								</g>
							</g>
						</g>
					</g>
					<g>
						<g>
							<g>
								<g>
									<g>
										<g>
											<g>
												<g>
													<path fill="#86BC40" d="M117.046,181.093c-0.535,1.203-1.052,2.353-1.542,3.442c-1.332,2.941-2.497,5.453-3.401,7.384
														c-1.271,2.712-2.029,4.275-2.029,4.275h-7.209c0.11-1.435,0.229-2.861,0.357-4.275c0.177-1.993,0.37-3.967,0.576-5.916
														c1.403-13.341,3.427-25.627,5.859-36.297c0.375-1.653,0.761-3.265,1.157-4.836
														c7.063-28.104,16.994-43.203,25.283-33.505C142.995,119.433,126.908,158.956,117.046,181.093z"/>
												</g>
											</g>
										</g>
									</g>
								</g>
							</g>
						</g>
						<g>
							<g>
								<path fill="#A5CF44" d="M103.221,191.919l2.174,4.275h4.676c0,0,0.351-0.72,0.972-2.03l0.26-51.208
									C107.756,156.521,104.879,173.314,103.221,191.919z"/>
							</g>
						</g>
						<g>
							<g>
								<g>
									<g>
										<g>
											<g>
												<g>
													<g>
														<path fill="#A5CF44" d="M105.132,196.195h1.178l22.706-74.396c0.09-0.298-0.077-0.612-0.373-0.704
															c-0.298-0.09-0.614,0.077-0.704,0.375L105.132,196.195z"/>
													</g>
												</g>
											</g>
										</g>
									</g>
								</g>
							</g>
						</g>
					</g>
					<g>
						<g>
							<g>
								<g>
									<g>
										<g>
											<g>
												<g>
													<path fill="#86BC40" d="M109.657,149.706c-1.01,14.225-2.409,27.532-3.412,36.232c-0.73,6.358-1.25,10.256-1.25,10.256
														h-6.381c-0.746-3.568-1.435-7.106-2.07-10.603c-2.363-12.986-3.988-25.435-4.959-36.924
														c-3.733-44.036,2.116-73.982,12.847-66.007C112.13,88.383,111.693,120.921,109.657,149.706z"/>
												</g>
											</g>
										</g>
									</g>
								</g>
							</g>
						</g>
						<g>
							<g>
								<path fill="#A5CF44" d="M115.503,184.535c-1.332,2.941-2.497,5.453-3.401,7.384c-1.271,2.712-2.029,4.275-2.029,4.275
									H91.408c0,0-0.353-0.72-0.972-2.031c-0.295-0.619-0.65-1.37-1.059-2.244c-1.026-2.181-2.373-5.101-3.926-8.546
									c2.291,0.663,6.268,1.661,11.094,2.219c0.362,0.041,0.733,0.079,1.105,0.118c1.944,0.19,4.011,0.304,6.147,0.293
									c0.807-0.003,1.622-0.023,2.447-0.064C109.279,185.787,112.41,185.36,115.503,184.535z"/>
							</g>
						</g>
						<g>
							<g>
								<g>
									<g>
										<g>
											<g>
												<g>
													<g>
														<path fill="#A5CF44" d="M101.256,96.41l-0.762,99.786h-1.125l0.762-99.793c0.003-0.312,0.259-0.554,0.568-0.559
															C101.008,95.845,101.259,96.1,101.256,96.41z"/>
													</g>
												</g>
											</g>
										</g>
									</g>
								</g>
							</g>
						</g>
					</g>
				</g>
				<g>
					<g>
						<g>
							<path fill="#ED938E" d="M133.314,195.427l-0.934,2.477l-0.589,1.568l-1.692,4.493l-0.591,1.568l-1.739,4.614l-0.589,1.566
								l-7.456,19.798H78.991l-7.456-19.798l-0.589-1.566l-1.738-4.614l-0.592-1.568l-1.692-4.493l-0.589-1.568l-0.934-2.477
								c-0.64-1.697,0.614-3.508,2.427-3.508h63.06C132.698,191.919,133.952,193.729,133.314,195.427z"/>
						</g>
					</g>
				</g>
				<g>
					<g>
						<g>
							<g>
								<g>
									<g>
										<g>
											<polygon fill="#CF2027" points="132.38,197.903 131.791,199.472 66.923,199.472 66.333,197.903 											"/>
										</g>
									</g>
								</g>
							</g>
						</g>
					</g>
					<g>
						<g>
							<g>
								<g>
									<g>
										<g>
											<polygon fill="#CF2027" points="130.099,203.965 129.507,205.533 69.207,205.533 68.615,203.965 											"/>
										</g>
									</g>
								</g>
							</g>
						</g>
					</g>
					<g>
						<g>
							<g>
								<g>
									<g>
										<g>
											<polygon fill="#CF2027" points="127.769,210.147 127.179,211.714 71.535,211.714 70.945,210.147 											"/>
										</g>
									</g>
								</g>
							</g>
						</g>
					</g>
				</g>
			</g>
			<g>
				<g>
					<g>
						<polygon fill="#6E4945" points="88.445,245.091 86.186,252.374 54.742,353.729 48.596,353.729 68.538,254.442 70.417,245.091 
													"/>
					</g>
				</g>
			</g>
			<g>
				<g>
					<g>
						<g>
							<polygon fill="#3D2027" points="70.417,245.091 88.445,245.091 86.186,252.374 68.538,254.442 							"/>
						</g>
					</g>
				</g>
			</g>
			<g>
				<g>
					<g>
						<polygon fill="#6E4945" points="150.301,353.729 144.155,353.729 111.781,249.374 110.452,245.091 128.478,245.091 
							128.933,247.361 128.936,247.361 						"/>
					</g>
				</g>
			</g>
			<g>
				<g>
					<g>
						<g>
							<g>
								<polygon fill="#3D2027" points="128.933,247.361 111.781,249.374 110.452,245.091 128.478,245.091 								"/>
							</g>
						</g>
					</g>
				</g>
			</g>
			<g>
				<g>
					<g>
						<g>
							<g>
								<path fill="#8C5D55" d="M137.37,295.182H61.181c-1.369,0-2.479-1.11-2.479-2.479v-1.469c0-1.369,1.11-2.479,2.479-2.479
									h76.188c1.37,0,2.479,1.109,2.479,2.479v1.469C139.849,294.071,138.739,295.182,137.37,295.182z"/>
							</g>
						</g>
					</g>
				</g>
			</g>
		</g>
	</g>
	<g>
		<g>
			<g>
				<g>
					<g>
						<g>
							<ellipse fill="#F6F6F6" cx="607.057" cy="355.217" rx="54.875" ry="6.607"/>
						</g>
					</g>
				</g>
			</g>
			<g>
				<g>
					<g>
						<g>
							<polygon fill="#6E4945" points="658.235,167.487 645.427,354.803 568.688,354.803 555.878,167.487 							"/>
						</g>
					</g>
				</g>
			</g>
			<g>
				<g>
					<g>
						<g>
							<polygon fill="#3D2027" points="657.383,179.965 557.127,185.741 556.408,175.231 657.706,175.231 							"/>
						</g>
					</g>
				</g>
			</g>
			<g>
				<g>
					<g>
						<g>
							<path fill="#8C5D55" d="M662.054,175.231H552.061c-1.282,0-2.321-1.039-2.321-2.321v-6.977c0-1.282,1.039-2.321,2.321-2.321
								h109.993c1.282,0,2.321,1.04,2.321,2.321v6.977C664.375,174.192,663.336,175.231,662.054,175.231z"/>
						</g>
					</g>
				</g>
			</g>
			<g>
				<g>
					<g>
						<polygon fill="#3D2027" points="646.77,196.571 644.253,240.914 569.86,240.914 567.344,196.571 						"/>
					</g>
				</g>
			</g>
			<g>
				<g>
					<g>
						<g>
							<circle fill="#6E4945" cx="607.057" cy="220.572" r="3.713"/>
						</g>
					</g>
				</g>
			</g>
			<g>
				<g>
					<g>
						<polygon fill="#3D2027" points="643.269,251.301 640.974,291.733 573.141,291.733 570.846,251.301 						"/>
					</g>
				</g>
			</g>
			<g>
				<g>
					<g>
						<g>
							<circle fill="#6E4945" cx="607.057" cy="272.986" r="3.713"/>
						</g>
					</g>
				</g>
			</g>
			<g>
				<g>
					<g>
						<polygon fill="#3D2027" points="640.246,301.946 638.144,339.005 575.971,339.005 573.868,301.946 						"/>
					</g>
				</g>
			</g>
			<g>
				<g>
					<g>
						<g>
							<circle fill="#6E4945" cx="607.057" cy="320.476" r="3.713"/>
						</g>
					</g>
				</g>
			</g>
		</g>
		<g>
			<g>
				<g>
					<path fill="#86BC40" d="M639.88,97.679c-1.134,6.201-2.43,11.005-2.43,11.005s-3.111,6.943-5.887,8.991
						c-1.937,1.43-3.711,0.47-4.144-6.914c-0.071-1.199-0.106-2.567-0.102-4.123c0,0-0.438-3.542-0.646-8.408
						c-0.457-10.589,0.163-27.449,8.717-27.756C643.474,70.186,641.955,86.291,639.88,97.679z"/>
				</g>
				<g>
					<path fill="#A5CF44" d="M626.673,98.231c1.244,2.488,3.308,5.214,6.295,4.982c3.103-0.243,5.465-3.122,6.912-5.534
						c-1.134,6.201-2.43,11.005-2.43,11.005s-3.111,6.943-5.887,8.991c-1.702-1.073-3.097-3.569-4.144-6.914L626.673,98.231z"/>
				</g>
				<g>
					<path fill="#A5CF44" d="M631.948,116.005c-0.259,0-0.477-0.201-0.494-0.462c-0.477-7.356,1.994-31.213,2.1-32.225
						c0.028-0.271,0.267-0.468,0.543-0.441c0.271,0.028,0.469,0.271,0.44,0.543c-0.025,0.248-2.566,24.786-2.095,32.059
						c0.018,0.273-0.189,0.508-0.462,0.526C631.97,116.005,631.959,116.005,631.948,116.005z"/>
				</g>
			</g>
			<g>
				<g>
					<path fill="#86BC40" d="M633.97,130.266h-10.332c0,0-9.409-0.7-6.471-8.645c2.941-7.945-0.838-9.834-5.377-15.064
						c-4.537-5.231-11.342-16.313-3.779-19.719c7.562-3.406,15.123,4.806,18.16,13.587c0.938,2.708,1.247,5.242,1.583,7.688
						c0.179,1.316,0.363,2.607,0.66,3.891c0.522,2.263,1.386,4.497,3.146,6.782c0.047,0.06,0.094,0.119,0.142,0.181
						C636.49,125.02,633.97,130.266,633.97,130.266z"/>
				</g>
				<g>
					<path fill="#A5CF44" d="M633.97,130.266h-9.021c-1.685-8.014,1.229-14.586,3.465-18.262c0.522,2.263,1.386,4.497,3.146,6.782
						c0.047,0.06,0.094,0.119,0.142,0.181C636.49,125.02,633.97,130.266,633.97,130.266z"/>
				</g>
				<g>
					<path fill="#A5CF44" d="M626.562,130.055c-0.268,0-0.487-0.213-0.495-0.481c-0.493-17.769-12.377-33.162-12.497-33.315
						c-0.168-0.215-0.13-0.526,0.085-0.694c0.215-0.168,0.525-0.13,0.694,0.085c0.122,0.156,12.205,15.796,12.707,33.897
						c0.008,0.273-0.208,0.501-0.48,0.508C626.57,130.055,626.565,130.055,626.562,130.055z"/>
				</g>
			</g>
			<g>
				<g>
					<path fill="#86BC40" d="M657.914,106.557c-7.814,6.365-11.846,7.047-10.839,13.135c0.334,2.009,0.61,3.96,0.608,5.697
						c-0.008,3.517-1.178,6.149-5.397,6.567c-6.3,0.626-11.594-1.687-11.594-1.687s-1.877-4.489-2.164-9.788
						c-0.268-4.927,0.839-10.555,6.104-13.924c10.931-6.993,8.915-34.617,23.281-32.022
						C672.28,77.132,665.728,100.192,657.914,106.557z"/>
				</g>
				<g>
					<path fill="#A5CF44" d="M647.684,125.388c-0.008,3.517-1.178,6.149-5.397,6.567c-6.3,0.626-11.594-1.687-11.594-1.687
						s-1.877-4.489-2.164-9.788C630.965,121.999,638.536,126.132,647.684,125.388z"/>
				</g>
				<g>
					<path fill="#A5CF44" d="M636.811,129.13c-0.247,0-0.46-0.185-0.49-0.436c-0.017-0.139-1.564-13.958,7.464-22.35
						c8.732-8.118,12.174-21.427,12.207-21.561c0.067-0.265,0.336-0.425,0.601-0.358s0.426,0.336,0.358,0.601
						c-0.034,0.136-3.542,13.722-12.493,22.043c-8.662,8.053-7.171,21.373-7.154,21.506c0.032,0.271-0.161,0.518-0.433,0.551
						C636.851,129.129,636.83,129.13,636.811,129.13z"/>
				</g>
			</g>
			<g>
				<g>
					<g>
						<g>
							<polygon fill="#ED938E" points="646.702,163.783 649.229,142.234 649.346,141.23 649.692,138.275 649.81,137.27 
								650.147,134.391 650.265,133.386 650.976,127.33 614.968,127.33 615.679,133.386 615.796,134.391 616.134,137.27 
								616.252,138.275 616.599,141.23 616.716,142.234 619.242,163.783 							"/>
						</g>
					</g>
				</g>
				<g>
					<g>
						<g>
							<g>
								<g>
									<polygon fill="#CF2027" points="650.265,133.386 650.147,134.391 615.796,134.391 615.679,133.386 									"/>
								</g>
							</g>
						</g>
					</g>
					<g>
						<g>
							<g>
								<g>
									<polygon fill="#CF2027" points="649.81,137.27 649.692,138.275 616.252,138.275 616.134,137.27 									"/>
								</g>
							</g>
						</g>
					</g>
					<g>
						<g>
							<g>
								<g>
									<polygon fill="#CF2027" points="649.346,141.23 649.229,142.234 616.716,142.234 616.599,141.23 									"/>
								</g>
							</g>
						</g>
					</g>
				</g>
			</g>
		</g>
		<g>
			<g>
				<g>
					<polygon fill="#101739" points="593.458,129.309 593.195,132.331 593.06,133.888 592.929,135.355 592.747,137.422 
						592.661,138.397 592.286,142.73 591.87,147.441 591.853,147.663 591.593,150.649 591.467,152.116 591.384,153.062 
						590.965,157.873 590.445,163.841 573.856,163.841 573.735,162.475 573.233,156.671 572.926,153.17 572.835,152.116 
						572.707,150.649 572.427,147.441 572.419,147.345 572.112,143.857 571.641,138.397 571.605,138.004 571.373,135.355 
						571.303,134.531 571.247,133.888 570.844,129.309 					"/>
				</g>
			</g>
			<g>
				<polygon fill="#00443C" points="593.06,133.888 592.929,135.355 571.373,135.355 571.303,134.531 571.247,133.888 				"/>
			</g>
			<g>
				<polygon fill="#00443C" points="591.593,150.649 591.467,152.116 572.835,152.116 572.707,150.649 				"/>
			</g>
			<g>
				<g>
					<polygon fill="#FFFFFF" points="592.662,138.398 592.286,142.73 591.87,147.441 572.428,147.441 572.419,147.346 
						572.111,143.855 571.641,138.398 					"/>
				</g>
			</g>
			<g>
				<g>
					<g>
						<rect x="569.686" y="124.894" fill="#C1C1C0" width="24.933" height="4.416"/>
					</g>
				</g>
				<g>
					<g>
						<path fill="#101739" d="M592.739,124.894h-21.176v-2.271c0-0.816,0.662-1.478,1.479-1.478h18.22
							c0.816,0,1.478,0.662,1.478,1.478V124.894z"/>
					</g>
				</g>
			</g>
		</g>
	</g>
</g>
</svg>
